<?xml version="1.0" standalone="no"?>
<!DOCTYPE svg PUBLIC "-//W3C//DTD SVG 20010904//EN"
 "http://www.w3.org/TR/2001/REC-SVG-20010904/DTD/svg10.dtd">
<svg version="1.0" xmlns="http://www.w3.org/2000/svg"
 width="512.000000pt" height="512.000000pt" viewBox="0 0 512.000000 512.000000"
 preserveAspectRatio="xMidYMid meet">
<metadata>
Created by potrace 1.14, written by Peter Selinger 2001-2017
</metadata>
<g transform="translate(0.000000,512.000000) scale(0.100000,-0.100000)"
fill="#000000" stroke="none">
<path d="M537 5103 c-2 -1 -21 -5 -43 -9 -229 -35 -436 -241 -482 -477 -15
-74 -8 -216 13 -287 17 -57 76 -172 100 -196 7 -8 22 -24 32 -37 10 -12 41
-41 68 -63 130 -107 287 -152 456 -132 223 27 404 172 491 393 26 67 32 96 34
180 5 145 -26 255 -102 365 -94 137 -231 226 -394 256 -37 6 -168 12 -173 7z"/>
<path d="M2508 5105 c-2 -2 -25 -6 -51 -9 -117 -16 -259 -95 -347 -194 -57
-63 -121 -188 -141 -272 -7 -30 -12 -91 -12 -135 3 -327 263 -590 590 -597
350 -7 635 286 616 632 -15 263 -199 489 -452 555 -55 14 -194 28 -203 20z"/>
<path d="M4458 5104 c-2 -1 -19 -4 -39 -7 -100 -13 -237 -80 -315 -153 -127
-120 -189 -266 -189 -444 0 -124 23 -208 82 -309 91 -153 266 -270 431 -287
31 -3 69 -7 84 -9 39 -5 195 29 251 53 50 23 72 57 64 99 -3 15 5 30 23 47 23
20 35 23 72 19 53 -6 70 8 123 102 45 79 66 160 70 267 8 191 -71 363 -223
490 -55 46 -167 101 -237 117 -44 11 -191 22 -197 15z"/>
<path d="M1102 4030 c-12 -12 -22 -26 -23 -33 0 -7 -2 -20 -4 -30 -4 -22 79
-105 674 -675 36 -35 89 -86 117 -114 63 -61 102 -71 139 -34 16 16 25 36 25
55 0 34 -7 41 -361 382 -112 108 -242 234 -289 279 -177 171 -200 190 -229
190 -15 0 -37 -9 -49 -20z"/>
<path d="M3885 4028 c-10 -6 -29 -21 -40 -32 -12 -12 -59 -55 -104 -96 -116
-105 -117 -105 -220 -200 -52 -47 -103 -93 -115 -103 -11 -10 -63 -58 -116
-106 -52 -48 -117 -107 -145 -132 -109 -97 -125 -116 -125 -152 0 -56 57 -90
105 -64 13 7 45 32 72 57 26 25 88 81 137 125 49 44 99 89 110 100 12 11 66
61 121 110 54 50 122 111 149 136 266 241 282 257 284 287 4 56 -65 99 -113
70z"/>
<path d="M2523 3788 c-13 -6 -26 -20 -30 -32 -10 -32 -11 -317 0 -349 17 -51
79 -63 118 -23 23 24 24 31 25 183 1 174 -5 205 -42 222 -30 13 -42 13 -71 -1z"/>
<path d="M2461 3268 c-255 -44 -461 -253 -498 -505 -20 -134 10 -289 77 -398
26 -42 67 -60 101 -44 11 6 25 -2 47 -24 32 -33 32 -33 32 -144 l0 -110 -52
14 c-59 16 -139 11 -190 -10 -18 -8 -53 -32 -78 -55 -44 -39 -45 -40 -70 -22
-76 53 -191 59 -287 15 -45 -22 -117 -105 -133 -156 -7 -24 -14 -45 -15 -47
-1 -1 -20 4 -43 12 -59 21 -158 15 -213 -13 -66 -34 -122 -99 -143 -163 -15
-47 -17 -96 -15 -364 1 -309 12 -436 39 -469 7 -8 26 -19 43 -23 44 -11 57
-55 27 -87 -14 -15 -23 -36 -22 -54 1 -34 58 -151 115 -236 50 -74 193 -217
248 -247 217 -120 248 -125 744 -122 318 1 391 4 448 18 85 21 177 64 242 113
153 118 290 376 329 623 3 19 8 46 11 60 8 39 14 103 20 219 10 185 19 231 62
329 54 124 18 287 -83 367 -58 46 -113 67 -187 71 -119 5 -200 -44 -183 -112
4 -14 0 -31 -9 -41 -8 -10 -20 -26 -27 -36 -11 -14 -13 35 -13 274 0 291 0
292 22 306 20 14 27 14 59 -2 48 -23 79 -9 143 62 127 141 181 338 143 522
-14 69 -47 156 -69 182 -7 8 -13 21 -13 27 0 7 -37 49 -82 95 -98 97 -177 141
-318 174 -33 8 -168 8 -209 1z"/>
</g>
</svg>
